HIERARCHY
ROOT Hips
{
	OFFSET	0.00	0.00	0.00
	CHANNELS 6 Xposition Yposition Zposition Zrotation Xrotation Yrotation
	JOINT LeftUpLeg
	{
		OFFSET	 0.126116	-0.014019	-0.065224
		CHANNELS 3 Zrotation Xrotation Yrotation
		JOINT LeftLeg
		{
			OFFSET	 0.000000	 0.000000	 0.569914
			CHANNELS 3 Zrotation Xrotation Yrotation
			JOINT LeftFoot
			{
				OFFSET	 0.000000	 0.000000	 0.544423
				CHANNELS 3 Zrotation Xrotation Yrotation
				JOINT LeftToeBase
				{
					OFFSET	 0.000000	 0.000000	 0.207117
					CHANNELS 3 Zrotation Xrotation Yrotation
					End Site
					{
						OFFSET	 0.000000	 0.000000	 0.207117
					}
				}
			}
		}
	}
	JOINT RightUpLeg
	{
		OFFSET	-0.124023	-0.008373	-0.065224
		CHANNELS 3 Zrotation Xrotation Yrotation
		JOINT RightLeg
		{
			OFFSET	 0.000000	 0.000000	 0.570047
			CHANNELS 3 Zrotation Xrotation Yrotation
			JOINT RightFoot
			{
				OFFSET	 0.000000	 0.000000	 0.544354
				CHANNELS 3 Zrotation Xrotation Yrotation
				JOINT RightToeBase
				{
					OFFSET	 0.000000	 0.000000	 0.207540
					CHANNELS 3 Zrotation Xrotation Yrotation
					End Site
					{
						OFFSET	 0.000000	 0.000000	 0.207540
					}
				}
			}
		}
	}
	JOINT Spine
	{
		OFFSET	 0.000184	-0.007763	 0.117403
		CHANNELS 3 Zrotation Xrotation Yrotation
		JOINT Spine1
		{
			OFFSET	 0.000000	 0.000000	 0.137269
			CHANNELS 3 Zrotation Xrotation Yrotation
			JOINT Spine2
			{
				OFFSET	 0.000000	 0.000000	 0.156879
				CHANNELS 3 Zrotation Xrotation Yrotation
				JOINT LeftShoulder
				{
					OFFSET	 0.080501	-0.002496	 0.160144
					CHANNELS 3 Zrotation Xrotation Yrotation
					JOINT LeftArm
					{
						OFFSET	 0.000000	 0.000000	 0.164363
						CHANNELS 3 Zrotation Xrotation Yrotation
						JOINT LeftForeArm
						{
							OFFSET	 0.000000	 0.000000	 0.364576
							CHANNELS 3 Zrotation Xrotation Yrotation
							JOINT LeftHand
							{
								OFFSET	 0.000000	 0.000000	 0.360812
								CHANNELS 3 Zrotation Xrotation Yrotation
								JOINT LeftHandIndex1
								{
									OFFSET	 0.000000	 0.000000	 0.086006
									CHANNELS 3 Zrotation Xrotation Yrotation
									JOINT LeftHandIndex2
									{
										OFFSET	 0.000000	 0.000000	 0.047236
										CHANNELS 3 Zrotation Xrotation Yrotation
										JOINT LeftHandIndex3
										{
											OFFSET	-0.004284	-0.000551	 0.038166
											CHANNELS 3 Zrotation Xrotation Yrotation
											End Site
											{
												OFFSET	-0.004284	-0.000551	 0.038166
											}
										}
									}
								}
							}
						}
					}
				}
				JOINT Neck
				{
					OFFSET	 0.000000	 0.000000	 0.176489
					CHANNELS 3 Zrotation Xrotation Yrotation
					JOINT Head
					{
						OFFSET	 0.000000	-0.001747	 0.077940
						CHANNELS 3 Zrotation Xrotation Yrotation
						End Site
						{
							OFFSET	 0.000000	-0.001747	 0.077940
						}
					}
				}
				JOINT RightShoulder
				{
					OFFSET	-0.080363	 0.000306	 0.159706
					CHANNELS 3 Zrotation Xrotation Yrotation
					JOINT RightArm
					{
						OFFSET	 0.000000	 0.000000	 0.164196
						CHANNELS 3 Zrotation Xrotation Yrotation
						JOINT RightForeArm
						{
							OFFSET	 0.000000	 0.000000	 0.365611
							CHANNELS 3 Zrotation Xrotation Yrotation
							JOINT RightHand
							{
								OFFSET	 0.000000	 0.000000	 0.360648
								CHANNELS 3 Zrotation Xrotation Yrotation
								JOINT RightHandIndex1
								{
									OFFSET	 0.000000	 0.000000	 0.069977
									CHANNELS 3 Zrotation Xrotation Yrotation
									JOINT RightHandIndex2
									{
										OFFSET	 0.000000	 0.000000	 0.052305
										CHANNELS 3 Zrotation Xrotation Yrotation
										JOINT RightHandIndex3
										{
											OFFSET	 0.009002	-0.000782	 0.042196
											CHANNELS 3 Zrotation Xrotation Yrotation
											End Site
											{
												OFFSET	 0.009002	-0.000782	 0.042196
											}
										}
									}
								}
							}
						}
					}
				}
			}
		}
	}
}
MOTION
Frames:    12
Frame Time: 0.03333334
-0.057319	-2.227902	 1.233366	 3.948704	-1.781854	-3.162486	 0.587666	-7.527557	-170.956700	 0.223309	-28.514020	-0.058069	 25.426200	 71.430890	-28.503980	-2.371576	 31.245870	-0.061586	-3.048886	-28.516990	-176.379700	 10.090730	-53.444810	 8.759390	 7.983282	 64.783290	-2.989433	 2.357744	 33.179260	 0.107396	-2.764894	 8.985329	 1.792024	-0.644765	 2.445451	 0.341889	-1.164153	-2.364260	-0.556919	-93.745480	 58.841520	 175.813900	 22.790100	 43.490430	-31.286650	-0.286816	-1.502480	-11.957550	-0.872735	-19.159580	-6.000777	-4.869378	 19.247090	-2.787891	-3.891323	 21.347270	 2.212708	-4.807708	 5.552028	 0.146583	-0.132644	-5.007247	 0.155157	-3.411002	 2.281885	 2.734367	 89.840290	 61.564600	-179.861800	-21.110520	 52.997780	 11.556700	-1.188724	-2.570687	 13.462970	-4.792836	-5.345873	 0.798788	 6.305860	 26.115800	-0.579391	 1.711605	 46.068380	-6.837509	 0.325720	 25.148990	 3.671164
-0.057864	-2.237071	 1.233809	 4.524155	-1.505154	-3.146085	 0.114636	-7.391478	-171.011300	 0.645336	-28.434440	 0.112557	 25.123880	 71.445820	-28.515350	-2.370555	 31.420500	-0.065523	-4.248101	-29.394200	-176.377600	 10.547250	-52.393900	 8.999557	 10.361550	 68.899650	-6.043194	 2.358317	 33.096120	 0.105455	-3.198855	 8.845061	 1.704658	-0.641971	 2.221301	 0.398965	-1.252578	-2.369923	-0.562078	-93.851230	 58.931380	 175.578200	 23.202960	 42.827420	-31.945800	-0.922129	-1.393342	-12.190050	-0.878975	-19.909550	-7.008349	-4.869259	 19.244220	-2.786481	-3.887466	 21.396720	 2.208791	-4.808254	 5.545551	 0.146962	-0.101476	-5.044600	 0.171110	-3.391375	 2.237882	 2.618292	 89.806320	 61.614690	-179.942300	-20.744570	 53.303460	 10.887220	-1.435364	-2.570273	 13.246090	-4.753307	-5.618309	 0.672616	 6.299070	 25.428540	-0.558877	 1.808468	 45.315790	-6.924335	 0.442089	 24.644270	 3.611157
-0.058477	-2.247760	 1.234099	 5.105692	-1.219752	-3.136829	-0.499992	-7.198407	-171.090000	 0.927881	-28.331820	 0.272965	 24.834600	 71.515230	-28.515030	-2.369533	 31.592200	-0.069408	-5.417325	-30.354570	-176.399000	 10.872360	-51.140750	 9.105418	 14.385760	 72.628880	-10.824250	 2.358895	 33.010400	 0.103469	-3.642751	 8.699078	 1.615585	-0.645295	 2.016492	 0.459291	-1.341131	-2.386371	-0.564616	-93.957470	 59.016330	 175.340800	 23.558200	 42.080080	-32.545880	-1.479620	-1.326589	-12.701370	-0.958397	-20.705260	-8.041465	-4.869007	 19.249560	-2.786534	-3.883213	 21.451280	 2.204461	-4.808272	 5.545353	 0.146974	-0.069661	-5.082556	 0.187330	-3.370735	 2.194463	 2.496505	 89.772920	 61.657150	 179.978100	-20.375890	 53.629290	 10.121620	-1.613313	-2.583849	 13.100050	-4.794480	-5.968714	 0.549331	 6.292423	 24.700160	-0.535543	 1.909146	 44.508820	-7.014181	 0.562730	 24.116040	 3.549840
-0.059103	-2.259446	 1.234232	 5.596191	-0.771877	-3.162649	-0.971233	-7.085578	-171.140300	 1.093519	-28.187890	 0.349944	 24.561990	 71.568380	-28.362750	-2.368711	 31.729130	-0.072509	-6.661062	-31.564720	-176.459000	 11.410640	-49.633190	 9.330007	 19.250600	 75.703610	-16.513990	 2.358995	 32.997590	 0.103160	-3.952422	 8.397438	 1.499939	-0.661726	 1.834224	 0.587320	-1.432845	-2.414287	-0.603570	-94.078930	 59.018360	 175.081300	 23.653550	 41.303500	-32.880030	-1.675552	-1.369900	-13.541420	-0.776032	-21.707130	-8.539931	-4.865158	 19.354300	-2.794680	-3.876281	 21.539910	 2.197426	-4.805298	 5.580406	 0.144925	-0.044913	-5.100639	 0.222778	-3.378551	 2.165167	 2.428683	 89.726560	 61.713140	 179.867400	-20.018560	 53.963800	 9.316190	-1.979912	-2.648376	 12.985630	-5.005597	-6.422865	 0.377569	 6.280101	 23.820640	-0.547850	 2.011200	 43.663880	-7.104837	 0.745763	 23.305020	 3.458545
-0.059778	-2.272457	 1.234127	 6.067642	-0.329008	-3.204546	-1.436408	-6.888295	-171.190400	 1.255439	-28.019400	 0.424095	 24.314330	 71.699870	-28.225370	-2.367843	 31.870850	-0.075735	-7.805202	-32.782420	-176.546800	 11.760730	-47.880130	 9.352318	 28.860700	 78.542420	-27.052560	 2.359157	 32.972680	 0.102583	-4.251370	 8.094638	 1.395313	-0.679116	 1.689289	 0.716219	-1.522397	-2.454742	-0.644304	-94.198580	 59.017750	 174.826200	 23.680150	 40.455230	-33.231130	-1.870225	-1.419240	-14.490860	-0.668047	-22.784800	-9.000801	-4.860981	 19.465080	-2.802857	-3.869118	 21.631290	 2.190141	-4.802093	 5.618196	 0.142716	-0.021268	-5.119883	 0.257946	-3.387891	 2.136276	 2.365022	 89.678910	 61.771020	 179.752900	-19.648980	 54.306850	 8.430879	-2.360507	-2.730680	 12.943310	-5.232862	-6.951623	 0.183484	 6.267397	 22.935510	-0.561728	 2.109148	 42.826550	-7.191411	 0.928726	 22.482790	 3.369444
-0.060157	-2.286859	 1.233796	 6.298324	 0.092584	-3.403501	-1.640217	-6.447164	-171.081800	 1.360826	-27.624760	 0.467474	 24.457670	 72.018810	-28.452310	-2.366478	 32.090760	-0.080751	-8.147479	-33.999470	-176.377000	 12.031180	-45.862870	 9.252681	 35.792130	 79.049870	-34.946880	 2.360485	 32.775140	 0.098006	-4.374453	 7.733673	 1.463223	-0.676229	 1.749982	 0.820329	-1.585842	-2.533746	-0.688486	-94.300530	 58.975360	 174.615100	 23.528590	 39.538400	-33.634500	-2.344956	-1.392481	-15.524600	-0.758240	-24.123800	-8.752365	-4.852244	 19.668950	-2.812383	-3.858361	 21.768020	 2.179214	-4.795359	 5.697515	 0.138064	-0.011715	-5.157641	 0.291623	-3.418986	 2.110364	 2.356928	 89.606760	 61.859790	 179.578700	-19.199170	 54.657620	 7.549750	-3.007943	-2.874162	 12.890180	-5.669549	-7.507354	-0.332779	 6.249830	 21.907290	-0.597201	 2.198586	 42.038400	-7.270081	 1.155692	 21.446930	 3.261965
-0.060627	-2.302762	 1.233159	 6.509170	 0.486132	-3.603383	-1.842848	-5.889506	-170.986200	 1.459706	-27.208780	 0.506207	 24.597260	 72.358540	-28.666620	-2.364757	 32.362960	-0.086972	-8.279765	-35.119570	-176.178200	 12.086250	-43.492470	 8.918514	 44.371500	 79.301830	-44.396220	 2.360918	 32.710360	 0.096511	-4.498498	 7.379603	 1.536457	-0.673702	 1.872763	 0.917659	-1.643273	-2.633064	-0.729589	-94.396420	 58.933000	 174.417400	 23.263310	 38.566090	-34.126410	-2.794080	-1.349108	-16.480210	-0.890185	-25.504740	-8.504719	-4.843067	 19.876420	-2.820826	-3.846932	 21.912850	 2.167608	-4.787914	 5.784992	 0.132918	-0.001225	-5.197586	 0.322638	-3.445481	 2.081464	 2.345217	 89.536360	 61.944520	 179.407700	-18.706090	 55.007870	 6.574882	-3.677426	-3.033292	 12.881660	-6.120331	-8.168145	-0.893843	 6.231096	 20.853550	-0.634663	 2.296242	 41.151210	-7.355535	 1.384873	 20.383300	 3.156980
-0.061093	-2.318048	 1.232351	 6.570581	 0.666517	-3.762584	-1.946502	-5.108070	-170.922200	 1.506698	-26.786040	 0.520109	 24.482980	 72.462280	-28.574110	-2.361415	 32.874770	-0.098761	-7.596924	-35.786160	-175.810200	 11.688390	-41.147420	 8.263188	 62.745450	 80.044490	-63.194000	 2.356354	 33.379460	 0.112064	-4.597914	 7.123483	 1.629964	-0.659819	 2.215731	 0.959667	-1.658098	-2.780449	-0.744622	-94.442820	 58.896560	 174.324500	 22.748120	 37.794880	-34.615080	-3.113986	-1.310736	-17.184110	-1.141664	-26.545560	-8.295861	-4.833278	 20.069290	-2.821858	-3.833865	 22.077670	 2.154341	-4.777917	 5.902412	 0.125999	 0.012470	-5.242901	 0.333960	-3.442811	 2.040630	 2.317492	 89.485680	 61.992990	 179.284400	-18.133300	 55.290100	 5.603165	-4.355350	-3.201913	 12.899740	-6.524443	-8.927453	-1.597192	 6.211550	 19.835220	-0.676577	 2.431739	 39.871900	-7.473288	 1.604766	 19.346310	 3.059666
-0.061760	-2.336875	 1.231091	 6.652046	 0.852804	-3.941688	-2.089056	-4.125683	-170.864100	 1.569305	-26.296190	 0.539026	 24.308670	 72.590290	-28.428580	-2.356783	 33.548260	-0.114433	-6.737004	-36.385970	-175.326600	 11.220990	-38.084010	 7.455993	 80.893100	 79.490720	-81.704030	 2.350516	 34.187070	 0.131081	-4.734823	 6.865495	 1.733091	-0.648505	 2.590163	 1.011290	-1.673054	-2.955118	-0.763880	-94.493740	 58.861580	 174.221800	 22.088870	 36.898040	-35.306780	-3.433392	-1.253739	-17.746830	-1.454603	-27.867790	-8.118316	-4.824383	 20.280800	-2.833656	-3.818647	 22.268990	 2.138872	-4.765749	 6.045122	 0.117555	 0.031005	-5.295450	 0.346211	-3.434296	 1.998233	 2.272979	 89.429440	 62.038960	 179.147000	-17.437290	 55.594660	 4.416502	-5.133188	-3.393909	 12.908170	-6.987492	-9.912039	-2.408182	 6.189158	 18.652470	-0.718395	 2.582667	 38.377500	-7.603258	 1.855888	 18.142770	 2.952768
-0.062691	-2.357054	 1.229467	 6.808383	 0.867604	-4.080508	-2.327809	-2.923974	-170.860500	 1.684473	-25.833130	 0.580398	 23.595250	 72.393040	-27.770060	-2.346924	 34.872200	-0.145803	-6.368377	-36.660550	-174.980400	 11.230190	-34.727360	 6.897219	 77.224360	 78.425450	-78.656190	 2.342113	 35.265790	 0.156940	-5.024873	 6.913638	 1.801059	-0.642641	 2.739511	 1.110450	-1.671334	-3.141606	-0.808695	-94.523090	 58.882680	 174.156200	 21.247910	 36.243870	-36.051130	-3.447745	-1.260207	-17.894570	-1.902368	-29.608200	-8.439731	-4.834867	 20.401270	-2.929404	-3.802859	 22.466260	 2.122836	-4.748787	 6.243386	 0.105769	 0.070793	-5.349400	 0.351333	-3.382139	 1.994130	 2.129352	 89.389840	 62.004440	 179.052600	-16.627830	 55.829190	 2.940257	-5.796672	-3.593436	 13.035910	-7.283370	-11.271510	-3.169544	 6.174789	 17.425780	-0.707581	 2.737676	 36.761920	-7.735321	 2.109970	 16.904520	 2.849309
-0.063924	-2.378144	 1.227546	 6.960947	 0.871333	-4.162656	-2.587606	-1.704549	-170.929600	 1.829953	-25.462610	 0.635209	 22.634010	 72.083330	-26.873400	-2.333549	 36.475620	-0.184887	-6.040750	-36.774900	-174.722800	 11.130440	-31.235070	 6.230068	 70.206450	 77.385960	-72.043060	 2.335354	 36.072590	 0.176636	-5.338516	 6.948774	 1.831465	-0.637905	 2.907572	 1.188564	-1.669869	-3.318563	-0.848949	-94.543500	 58.932610	 174.104500	 20.398550	 35.643560	-36.948330	-3.455525	-1.241083	-17.673160	-2.438245	-31.460050	-8.835444	-4.846793	 20.508080	-3.030523	-3.787501	 22.657150	 2.107242	-4.730392	 6.457849	 0.092952	 0.110818	-5.402088	 0.347077	-3.320990	 1.997050	 1.996541	 89.358160	 61.942810	 178.978400	-15.826210	 55.992180	 1.524897	-6.459299	-3.758649	 13.034970	-7.605968	-12.734510	-3.915876	 6.165614	 16.194380	-0.671015	 2.873295	 35.277380	-7.849564	 2.359324	 15.669950	 2.752512
-0.065846	-2.399670	 1.225305	 7.093434	 0.836728	-4.028701	-2.895125	-0.563446	-171.240600	 2.087820	-25.426610	 0.745165	 20.806920	 71.214970	-25.156470	-2.308243	 39.075620	-0.251122	-5.816757	-36.828110	-174.777100	 10.639100	-28.088680	 5.421823	 52.329220	 75.695870	-54.001800	 2.337311	 35.844180	 0.171023	-5.709335	 6.929870	 1.758580	-0.613833	 3.206111	 1.119923	-1.665976	-3.485584	-0.841021	-94.530530	 59.088490	 174.106300	 19.536560	 35.254070	-37.960620	-3.470727	-1.195878	-17.130700	-3.202470	-33.466320	-9.439157	-4.864426	 20.561020	-3.148635	-3.774435	 22.818880	 2.093981	-4.707258	 6.726660	 0.076781	 0.150411	-5.448710	 0.307660	-3.227319	 2.027098	 1.905116	 89.356900	 61.781880	 178.981400	-15.150940	 56.003110	 0.210961	-7.028032	-3.912490	 13.070050	-7.954620	-14.369390	-4.559682	 6.176629	 14.979680	-0.538660	 2.957303	 34.322930	-7.919679	 2.595273	 14.484560	 2.665355
